<svg xmlns="http://www.w3.org/2000/svg" viewBox="0 0 256 256">
  <rect width="256" height="256" fill="#3178C6" rx="28"/>
  <path fill="#FFFFFF" d="M56.611 128.85l-.081 10.483h33.32v94.68h23.568v-94.68h33.32v-10.28c0-5.69-.122-10.444-.284-10.566-.122-.162-20.4-.244-44.983-.203l-44.74.122-.12 10.443zm149.955-10.742c6.501 1.625 11.459 4.51 16.01 9.224 2.357 2.52 5.851 7.111 6.136 8.208.08.325-11.053 7.802-17.798 11.988-.244.162-1.22-.894-2.317-2.52-3.291-4.795-6.745-6.867-12.028-7.233-7.76-.528-12.759 3.535-12.718 10.321 0 1.992.284 3.17 1.097 4.795 1.707 3.536 4.876 5.648 14.832 9.955 18.326 7.883 26.168 13.084 31.045 20.48 5.445 8.249 6.664 21.415 2.966 31.208-4.063 10.646-14.14 17.879-28.323 20.276-4.388.772-14.79.65-19.504-.203-10.28-1.828-20.033-6.908-26.047-13.572-2.357-2.6-6.949-9.387-6.664-9.874.122-.163 1.178-.813 2.356-1.504 1.138-.65 5.446-3.129 9.509-5.485l7.355-4.267 1.544 2.276c2.154 3.29 6.867 7.801 9.712 9.305 8.167 4.307 19.383 3.698 24.909-1.26 2.357-2.153 3.332-4.388 3.332-7.68 0-2.966-.366-4.266-1.91-6.501-1.99-2.845-6.054-5.242-17.595-10.24-13.206-5.69-18.895-9.224-24.096-14.832-3.007-3.25-5.852-8.452-7.03-12.8-.975-3.616-1.22-12.678-.447-16.335 2.72-12.759 12.353-21.659 26.25-24.3 4.51-.853 14.994-.528 19.424.57z"/>
</svg>
